<mxfile host="app.diagrams.net" modified="2022-10-12T11:00:15.685Z" agent="5.0 (Windows NT 10.0; Win64; x64) AppleWebKit/537.36 (KHTML, like Gecko) Chrome/106.0.0.0 Safari/537.36" etag="L3t1m7Ih9mD6Yz9W377R" version="20.2.8" type="github">
  <diagram id="vsoGgWyC3ox2V0EuSB2q" name="Page-1">
    <mxGraphModel dx="782" dy="487" grid="1" gridSize="10" guides="1" tooltips="1" connect="1" arrows="1" fold="1" page="1" pageScale="1" pageWidth="827" pageHeight="1169" math="0" shadow="0">
      <root>
        <mxCell id="0" />
        <mxCell id="1" parent="0" />
        <mxCell id="J46pLMIbtv7L17cW5oeD-2" style="edgeStyle=orthogonalEdgeStyle;rounded=0;orthogonalLoop=1;jettySize=auto;html=1;exitX=0.5;exitY=1;exitDx=0;exitDy=0;exitPerimeter=0;entryX=0.5;entryY=0;entryDx=0;entryDy=0;" edge="1" parent="1" source="J46pLMIbtv7L17cW5oeD-1" target="J46pLMIbtv7L17cW5oeD-3">
          <mxGeometry relative="1" as="geometry">
            <mxPoint x="400" y="200" as="targetPoint" />
          </mxGeometry>
        </mxCell>
        <mxCell id="J46pLMIbtv7L17cW5oeD-1" value="START" style="strokeWidth=2;html=1;shape=mxgraph.flowchart.start_1;whiteSpace=wrap;" vertex="1" parent="1">
          <mxGeometry x="370" y="80" width="100" height="60" as="geometry" />
        </mxCell>
        <mxCell id="J46pLMIbtv7L17cW5oeD-3" value="" style="html=1;dashed=0;whitespace=wrap;" vertex="1" parent="1">
          <mxGeometry x="370" y="190" width="100" height="70" as="geometry" />
        </mxCell>
        <mxCell id="J46pLMIbtv7L17cW5oeD-4" value="&lt;span style=&quot;&quot;&gt;&lt;font style=&quot;font-size: 10px;&quot;&gt;Archivist receives a request to archive records&lt;/font&gt;&lt;/span&gt;" style="text;html=1;strokeColor=none;fillColor=none;align=center;verticalAlign=middle;whiteSpace=wrap;rounded=0;fontSize=12;" vertex="1" parent="1">
          <mxGeometry x="370" y="190" width="100" height="70" as="geometry" />
        </mxCell>
        <mxCell id="J46pLMIbtv7L17cW5oeD-5" style="edgeStyle=orthogonalEdgeStyle;rounded=0;orthogonalLoop=1;jettySize=auto;html=1;exitX=0.5;exitY=1;exitDx=0;exitDy=0;exitPerimeter=0;entryX=0.5;entryY=0;entryDx=0;entryDy=0;" edge="1" parent="1">
          <mxGeometry relative="1" as="geometry">
            <mxPoint x="419.76" y="310" as="targetPoint" />
            <mxPoint x="419.76" y="260" as="sourcePoint" />
          </mxGeometry>
        </mxCell>
        <mxCell id="J46pLMIbtv7L17cW5oeD-11" style="edgeStyle=orthogonalEdgeStyle;rounded=0;orthogonalLoop=1;jettySize=auto;html=1;exitX=0.5;exitY=1;exitDx=0;exitDy=0;fontSize=10;" edge="1" parent="1" source="J46pLMIbtv7L17cW5oeD-10">
          <mxGeometry relative="1" as="geometry">
            <mxPoint x="420.1612903225806" y="420" as="targetPoint" />
          </mxGeometry>
        </mxCell>
        <mxCell id="J46pLMIbtv7L17cW5oeD-10" value="" style="shape=image;html=1;verticalAlign=top;verticalLabelPosition=bottom;labelBackgroundColor=#ffffff;imageAspect=0;aspect=fixed;image=https://cdn1.iconfinder.com/data/icons/seo-and-web-development-6/32/development_computer_website_check_result-128.png;fontSize=10;" vertex="1" parent="1">
          <mxGeometry x="385" y="310" width="70" height="70" as="geometry" />
        </mxCell>
        <mxCell id="J46pLMIbtv7L17cW5oeD-14" style="edgeStyle=orthogonalEdgeStyle;rounded=0;orthogonalLoop=1;jettySize=auto;html=1;exitX=1;exitY=0.5;exitDx=0;exitDy=0;entryX=0.01;entryY=0.496;entryDx=0;entryDy=0;entryPerimeter=0;fontSize=10;" edge="1" parent="1" source="J46pLMIbtv7L17cW5oeD-12" target="J46pLMIbtv7L17cW5oeD-13">
          <mxGeometry relative="1" as="geometry" />
        </mxCell>
        <mxCell id="J46pLMIbtv7L17cW5oeD-15" style="edgeStyle=orthogonalEdgeStyle;rounded=0;orthogonalLoop=1;jettySize=auto;html=1;exitX=0.5;exitY=1;exitDx=0;exitDy=0;fontSize=10;" edge="1" parent="1" source="J46pLMIbtv7L17cW5oeD-12">
          <mxGeometry relative="1" as="geometry">
            <mxPoint x="420" y="539.9999999999999" as="targetPoint" />
          </mxGeometry>
        </mxCell>
        <mxCell id="J46pLMIbtv7L17cW5oeD-12" value="Archivist generates record number batch and emails a deep link to focal person" style="shape=process;whiteSpace=wrap;html=1;backgroundOutline=1;fontSize=10;" vertex="1" parent="1">
          <mxGeometry x="360" y="420" width="120" height="60" as="geometry" />
        </mxCell>
        <mxCell id="J46pLMIbtv7L17cW5oeD-13" value="&lt;div style=&quot;&quot;&gt;&lt;b style=&quot;background-color: initial;&quot;&gt;Required Information&lt;/b&gt;&lt;/div&gt;&lt;div style=&quot;&quot;&gt;&lt;br&gt;&lt;/div&gt;&lt;div style=&quot;&quot;&gt;&lt;span style=&quot;background-color: initial;&quot;&gt;1. Requesting department&lt;/span&gt;&lt;/div&gt;&lt;div style=&quot;&quot;&gt;&lt;span style=&quot;background-color: initial;&quot;&gt;2. Number of records in the requested batch&lt;/span&gt;&lt;/div&gt;&lt;div style=&quot;&quot;&gt;&lt;span style=&quot;background-color: initial;&quot;&gt;3. Focal person&lt;/span&gt;&lt;/div&gt;" style="strokeWidth=1;shadow=0;dashed=0;align=center;html=1;shape=mxgraph.mockup.text.stickyNote2;fontColor=#666666;mainText=;fontSize=10;whiteSpace=wrap;fillColor=#ffffcc;strokeColor=#F62E00;" vertex="1" parent="1">
          <mxGeometry x="560" y="365" width="160" height="170" as="geometry" />
        </mxCell>
        <mxCell id="J46pLMIbtv7L17cW5oeD-23" style="edgeStyle=orthogonalEdgeStyle;rounded=0;orthogonalLoop=1;jettySize=auto;html=1;exitX=0.5;exitY=1;exitDx=0;exitDy=0;fontSize=10;" edge="1" parent="1" source="J46pLMIbtv7L17cW5oeD-16">
          <mxGeometry relative="1" as="geometry">
            <mxPoint x="420" y="760" as="targetPoint" />
          </mxGeometry>
        </mxCell>
        <mxCell id="J46pLMIbtv7L17cW5oeD-32" style="edgeStyle=orthogonalEdgeStyle;rounded=0;orthogonalLoop=1;jettySize=auto;html=1;exitX=1;exitY=0.5;exitDx=0;exitDy=0;fontSize=10;" edge="1" parent="1" source="J46pLMIbtv7L17cW5oeD-16" target="J46pLMIbtv7L17cW5oeD-31">
          <mxGeometry relative="1" as="geometry" />
        </mxCell>
        <mxCell id="J46pLMIbtv7L17cW5oeD-16" value="FOCAL PERSON:&amp;nbsp;&lt;br&gt;User provides the required information using the App link" style="shape=process;whiteSpace=wrap;html=1;backgroundOutline=1;fontSize=10;" vertex="1" parent="1">
          <mxGeometry x="360" y="640" width="120" height="60" as="geometry" />
        </mxCell>
        <mxCell id="J46pLMIbtv7L17cW5oeD-20" style="edgeStyle=orthogonalEdgeStyle;rounded=0;orthogonalLoop=1;jettySize=auto;html=1;exitX=0.5;exitY=1;exitDx=0;exitDy=0;exitPerimeter=0;fontSize=10;" edge="1" parent="1" source="J46pLMIbtv7L17cW5oeD-17">
          <mxGeometry relative="1" as="geometry">
            <mxPoint x="420" y="640" as="targetPoint" />
          </mxGeometry>
        </mxCell>
        <mxCell id="J46pLMIbtv7L17cW5oeD-17" value="" style="strokeWidth=2;html=1;shape=mxgraph.flowchart.direct_data;whiteSpace=wrap;fontSize=10;" vertex="1" parent="1">
          <mxGeometry x="345" y="540" width="150" height="50" as="geometry" />
        </mxCell>
        <mxCell id="J46pLMIbtv7L17cW5oeD-18" value="An unused slot and data associated to the deep link is retrieved in App" style="text;html=1;strokeColor=none;fillColor=none;align=center;verticalAlign=middle;whiteSpace=wrap;rounded=0;fontSize=10;" vertex="1" parent="1">
          <mxGeometry x="363" y="542.5" width="101" height="45" as="geometry" />
        </mxCell>
        <mxCell id="J46pLMIbtv7L17cW5oeD-25" style="edgeStyle=orthogonalEdgeStyle;rounded=0;orthogonalLoop=1;jettySize=auto;html=1;exitX=0.5;exitY=1;exitDx=0;exitDy=0;fontSize=10;" edge="1" parent="1" source="J46pLMIbtv7L17cW5oeD-24">
          <mxGeometry relative="1" as="geometry">
            <mxPoint x="420" y="900" as="targetPoint" />
          </mxGeometry>
        </mxCell>
        <mxCell id="J46pLMIbtv7L17cW5oeD-28" style="edgeStyle=orthogonalEdgeStyle;rounded=0;orthogonalLoop=1;jettySize=auto;html=1;exitX=0;exitY=0.5;exitDx=0;exitDy=0;fontSize=10;" edge="1" parent="1" source="J46pLMIbtv7L17cW5oeD-24">
          <mxGeometry relative="1" as="geometry">
            <mxPoint x="420" y="500" as="targetPoint" />
            <Array as="points">
              <mxPoint x="190" y="795" />
              <mxPoint x="190" y="500" />
            </Array>
          </mxGeometry>
        </mxCell>
        <mxCell id="J46pLMIbtv7L17cW5oeD-24" value="Slots exhausted?" style="shape=rhombus;html=1;dashed=0;whitespace=wrap;perimeter=rhombusPerimeter;fontSize=10;" vertex="1" parent="1">
          <mxGeometry x="370" y="760" width="100" height="70" as="geometry" />
        </mxCell>
        <mxCell id="J46pLMIbtv7L17cW5oeD-29" value="NO" style="text;html=1;strokeColor=none;fillColor=none;align=center;verticalAlign=middle;whiteSpace=wrap;rounded=0;fontSize=10;" vertex="1" parent="1">
          <mxGeometry x="260" y="774" width="60" height="20" as="geometry" />
        </mxCell>
        <mxCell id="J46pLMIbtv7L17cW5oeD-30" value="YES" style="text;html=1;strokeColor=none;fillColor=none;align=center;verticalAlign=middle;whiteSpace=wrap;rounded=0;fontSize=10;" vertex="1" parent="1">
          <mxGeometry x="420" y="845" width="30" height="20" as="geometry" />
        </mxCell>
        <mxCell id="J46pLMIbtv7L17cW5oeD-31" value="&lt;div style=&quot;&quot;&gt;&lt;b style=&quot;background-color: initial;&quot;&gt;Required Information&lt;/b&gt;&lt;/div&gt;&lt;div style=&quot;&quot;&gt;&lt;br&gt;&lt;/div&gt;&lt;div style=&quot;&quot;&gt;&lt;span style=&quot;background-color: initial;&quot;&gt;1. Mandatory record metadata&lt;/span&gt;&lt;/div&gt;&lt;div style=&quot;&quot;&gt;2. The data provided should be cached to eliminate duplicity of inputs and increase efficiency&lt;/div&gt;" style="strokeWidth=1;shadow=0;dashed=0;align=center;html=1;shape=mxgraph.mockup.text.stickyNote2;fontColor=#666666;mainText=;fontSize=10;whiteSpace=wrap;fillColor=#ffffcc;strokeColor=#F62E00;" vertex="1" parent="1">
          <mxGeometry x="560" y="585" width="160" height="170" as="geometry" />
        </mxCell>
        <mxCell id="J46pLMIbtv7L17cW5oeD-34" style="edgeStyle=orthogonalEdgeStyle;rounded=0;orthogonalLoop=1;jettySize=auto;html=1;exitX=0.5;exitY=1;exitDx=0;exitDy=0;fontSize=10;" edge="1" parent="1" source="J46pLMIbtv7L17cW5oeD-33">
          <mxGeometry relative="1" as="geometry">
            <mxPoint x="419.66666666666674" y="1020" as="targetPoint" />
          </mxGeometry>
        </mxCell>
        <mxCell id="J46pLMIbtv7L17cW5oeD-37" style="edgeStyle=orthogonalEdgeStyle;rounded=0;orthogonalLoop=1;jettySize=auto;html=1;exitX=1;exitY=0.5;exitDx=0;exitDy=0;fontSize=10;" edge="1" parent="1" source="J46pLMIbtv7L17cW5oeD-33" target="J46pLMIbtv7L17cW5oeD-36">
          <mxGeometry relative="1" as="geometry">
            <mxPoint x="550" y="930" as="targetPoint" />
          </mxGeometry>
        </mxCell>
        <mxCell id="J46pLMIbtv7L17cW5oeD-33" value="Archivist is notified that the focal person has completed task and a deep link for review" style="shape=process;whiteSpace=wrap;html=1;backgroundOutline=1;fontSize=10;" vertex="1" parent="1">
          <mxGeometry x="360" y="900" width="120" height="60" as="geometry" />
        </mxCell>
        <mxCell id="J46pLMIbtv7L17cW5oeD-35" value="END" style="strokeWidth=2;html=1;shape=mxgraph.flowchart.terminator;whiteSpace=wrap;fontSize=10;" vertex="1" parent="1">
          <mxGeometry x="370" y="1020" width="100" height="60" as="geometry" />
        </mxCell>
        <mxCell id="J46pLMIbtv7L17cW5oeD-36" value="&lt;div style=&quot;&quot;&gt;&lt;b style=&quot;background-color: initial;&quot;&gt;&lt;font style=&quot;font-size: 10px;&quot;&gt;Required Information&lt;/font&gt;&lt;/b&gt;&lt;/div&gt;&lt;div style=&quot;&quot;&gt;&lt;font style=&quot;font-size: 10px;&quot;&gt;&lt;br&gt;&lt;/font&gt;&lt;/div&gt;&lt;div style=&quot;&quot;&gt;&lt;font style=&quot;font-size: 10px;&quot;&gt;1. User can edit information supplied by focal person&lt;/font&gt;&lt;/div&gt;&lt;div style=&quot;&quot;&gt;&lt;font style=&quot;font-size: 10px;&quot;&gt;2. User can add new information reserved for archivist&lt;/font&gt;&lt;/div&gt;&lt;div style=&quot;&quot;&gt;&lt;font style=&quot;font-size: 10px;&quot;&gt;3. The user can navigate between &quot;NEXT&quot; and &quot;PREVIOUS&quot; records associated with the batch key.&amp;nbsp;&lt;/font&gt;&lt;/div&gt;&lt;div style=&quot;&quot;&gt;&lt;font style=&quot;font-size: 10px;&quot;&gt;4. The user can&#39;t navigate out of a current review w/out saving/approval.&amp;nbsp;&lt;/font&gt;&lt;/div&gt;" style="strokeWidth=1;shadow=0;dashed=0;align=center;html=1;shape=mxgraph.mockup.text.stickyNote2;fontColor=#666666;mainText=;fontSize=10;whiteSpace=wrap;fillColor=#ffffcc;strokeColor=#F62E00;" vertex="1" parent="1">
          <mxGeometry x="560" y="845" width="160" height="170" as="geometry" />
        </mxCell>
      </root>
    </mxGraphModel>
  </diagram>
</mxfile>
